<svg id="Layer_1" data-name="Layer 1" xmlns="http://www.w3.org/2000/svg" viewBox="0 0 225 262"><defs><style>.cls-1{fill:#e1e2e5;}.cls-2{fill:#06b;}.cls-3{fill:#fff;}</style></defs><title>product-icon-minfraud</title><path class="cls-1" d="M213.24,199.67A111.56,111.56,0,0,0,221,179.55h-7.71v20.12Z"/><path class="cls-1" d="M146.43,256.8a111.94,111.94,0,0,0,23.43-10.49H146.43V256.8Z"/><path class="cls-1" d="M113,244.59H144.7V221.07A112.55,112.55,0,0,1,113,225.74v18.85Z"/><path class="cls-1" d="M79.61,246.31v10.81A112.5,112.5,0,0,0,111.29,262V246.31H79.61Z"/><path class="cls-1" d="M44.47,211.21v-8.34a113.09,113.09,0,0,1-22.88-23.32H12.8V201.7q2.57,4.9,5.6,9.51H44.47Z"/><path class="cls-1" d="M19.55,212.93a113.07,113.07,0,0,0,24.92,26.19V212.93H19.55Z"/><path class="cls-1" d="M55.15,246.31a112,112,0,0,0,22.73,10.26V246.31H55.15Z"/><path class="cls-1" d="M179.83,203.4v7.81H206.6q2.62-4,4.91-8.2V179.55h-8.11A113.09,113.09,0,0,1,179.83,203.4Z"/><path class="cls-1" d="M79.61,220.86v23.72h31.68V225.73A112.5,112.5,0,0,1,79.61,220.86Z"/><path class="cls-1" d="M213.24,163.4v14.42h8.18A112.52,112.52,0,0,0,225,149.6v-3.43h-4.89A111.6,111.6,0,0,1,213.24,163.4Z"/><path class="cls-1" d="M178.11,212.93H164.7a111.83,111.83,0,0,1-18.27,7.61v24h26.25q2.77-1.76,5.43-3.67v-28Z"/><path class="cls-1" d="M11.07,162a111.59,111.59,0,0,1-6.18-15.84H0v3.43a112.52,112.52,0,0,0,3.58,28.23h7.49V162Z"/><path class="cls-1" d="M179.83,239.66a113.08,113.08,0,0,0,25.62-26.72H179.83v26.72Z"/><path class="cls-1" d="M178.11,211.21v-6.55a112.6,112.6,0,0,1-10.24,6.55h10.24Z"/><path class="cls-1" d="M12.8,177.83h7.56a112.38,112.38,0,0,1-7.56-12.39v12.39Z"/><path class="cls-1" d="M0,113.57H0s0,20.93,0,30.88H4.37A112.37,112.37,0,0,1,0,113.57Z"/><path class="cls-1" d="M46.2,204.15v7.05H57.13A112.61,112.61,0,0,1,46.2,204.15Z"/><path class="cls-1" d="M60.3,212.93H46.2v27.48q3,2.18,6.13,4.17H77.88V220.32A111.84,111.84,0,0,1,60.3,212.93Z"/><path class="cls-1" d="M4,179.55a111.56,111.56,0,0,0,7,18.72V179.55H4Z"/><path class="cls-1" d="M225,113.66h0a112.37,112.37,0,0,1-4.36,30.78H225V113.66Z"/><path class="cls-1" d="M113,246.31V262a112.56,112.56,0,0,0,31.68-4.67v-11H113Z"/><path class="cls-1" d="M211.51,166.74a112.41,112.41,0,0,1-6.87,11.09h6.87V166.74Z"/><path class="cls-2" d="M33.71,188.94a110.29,110.29,0,0,1-32.42-78c0-.08,0-0.15,0-0.23A110.72,110.72,0,0,1,214,67.6a110,110,0,0,1,8.7,43.08c0,0.11,0,.22,0,0.33A110.66,110.66,0,0,1,33.71,188.94Z"/><g id="GEOIP_DB" data-name="GEOIP DB"><path class="cls-3" d="M171.76,106.94v0.78h-0.63q-3.29,4.69-5.63,8h6.26a62,62,0,0,1-11.89,32.86,122,122,0,0,0-23.94-5.79,146.6,146.6,0,0,0,2.82-27.07h11.89a2.47,2.47,0,0,0-.78-0.94c-1.56-2.19-3.29-4.54-5-6.88h-6.26c0-3.29-.31-6.57-0.47-9.86A148.69,148.69,0,0,1,125,74.4c-5,.47-10.33.63-16,0.63-6.1,0-11.89-.31-17.21-0.78C96,58.6,102.76,49.06,109,49.06c4.22,0,8.61,4.22,12.2,11.89a30.38,30.38,0,0,1-.31-3.75,36.42,36.42,0,0,1,3-14.39,68,68,0,0,0-15-1.56A70.27,70.27,0,0,0,55.5,65.64a61,61,0,0,0-4.85,6.26,70.42,70.42,0,0,0-12.36,39.9A71.17,71.17,0,0,0,50.81,152a66.31,66.31,0,0,0,4.85,6.26,70.48,70.48,0,0,0,106.4,0,61,61,0,0,0,4.85-6.26,69.64,69.64,0,0,0,12.52-40.21,78.54,78.54,0,0,0-1.56-14.86A99.8,99.8,0,0,1,171.76,106.94ZM109.33,82.85c6.26,0,12.67-.31,18.93-0.94a140.85,140.85,0,0,1,2.66,25.81H87.58a156,156,0,0,1,2.66-25.81C96.5,82.54,102.91,82.85,109.33,82.85Zm21.59,32.86a143.71,143.71,0,0,1-2.82,26.13,189.41,189.41,0,0,0-18.93-.94c-6.26,0-12.67.31-18.93,0.94a157.21,157.21,0,0,1-2.82-26.13h43.5ZM93.68,50.93a55.39,55.39,0,0,0-6.26,12.2,86.15,86.15,0,0,0-3.29,10.17,109.15,109.15,0,0,1-20.34-4.69A62.63,62.63,0,0,1,93.68,50.93ZM58.47,75A121.71,121.71,0,0,0,82.41,81a177.56,177.56,0,0,0-2.82,26.75H46.74A63.15,63.15,0,0,1,58.47,75Zm0.16,73.53A62,62,0,0,1,46.74,115.7H79.6a163.21,163.21,0,0,0,2.82,27.07A120.36,120.36,0,0,0,58.63,148.56ZM64,155a113.19,113.19,0,0,1,20.34-4.54c0.94,3.44,2,6.73,3.13,9.86a55.39,55.39,0,0,0,6.26,12.2A61.88,61.88,0,0,1,64,155Zm45.38,19.4c-6.26,0-12.83-9.39-17.06-24.88,5.32-.47,11-0.78,17.06-0.78s11.74,0.31,17.06.78C122,165,115.43,174.37,109.33,174.37Zm15.49-1.88a55.39,55.39,0,0,0,6.26-12.2,90.77,90.77,0,0,0,3.13-9.86A113.19,113.19,0,0,1,154.55,155,61.88,61.88,0,0,1,124.82,172.5Z"/><path class="cls-3" d="M189.44,57.19a31.29,31.29,0,0,0-62.59,0c0,17.21,19.25,42.24,31.29,59.14C158.3,116.49,189.44,74.4,189.44,57.19Zm-47.57-3.6a16.27,16.27,0,1,1,16.27,16.27A16.36,16.36,0,0,1,141.87,53.59Z"/></g></svg>